<svg aria-hidden="true" style="position: absolute; width: 0; height: 0; overflow: hidden;" version="1.1" xmlns="http://www.w3.org/2000/svg" xmlns:xlink="http://www.w3.org/1999/xlink">
<defs>

<symbol id="icon-add" viewBox="0 0 24 24">
<path fill="black" d="M13 7h-2v4H7v2h4v4h2v-4h4v-2h-4V7zm-1-5C6.48 2 2 6.48 2 12s4.48 10 10 10 10-4.48 10-10S17.52 2 12 2zm0 18c-4.41 0-8-3.59-8-8s3.59-8 8-8 8 3.59 8 8-3.59 8-8 8z"></path>
</symbol>

<symbol id="icon-send" viewBox="0 0 24 24">
<path fill="black" d="M2.01 21 23 12 2.01 3 2 10l15 2-15 2z"></path>
</symbol>

<symbol id="icon-more" viewBox="0 0 24 24">
<path fill="black" d="M12 8c1.1 0 2-.9 2-2s-.9-2-2-2-2 .9-2 2 .9 2 2 2zm0 2c-1.1 0-2 .9-2 2s.9 2 2 2 2-.9 2-2-.9-2-2-2zm0 6c-1.1 0-2 .9-2 2s.9 2 2 2 2-.9 2-2-.9-2-2-2z"></path>
</symbol>

<symbol id="icon-favorite" viewBox="0 0 24 24">
<path fill="black" d="M16.5 3c-1.74 0-3.41.81-4.5 2.09C10.91 3.81 9.24 3 7.5 3 4.42 3 2 5.42 2 8.5c0 3.78 3.4 6.86 8.55 11.54L12 21.35l1.45-1.32C18.6 15.36 22 12.28 22 8.5 22 5.42 19.58 3 16.5 3zm-4.4 15.55-.1.1-.1-.1C7.14 14.24 4 11.39 4 8.5 4 6.5 5.5 5 7.5 5c1.54 0 3.04.99 3.57 2.36h1.87C13.46 5.99 14.96 5 16.5 5c2 0 3.5 1.5 3.5 3.5 0 2.89-3.14 5.74-7.9 10.05z"></path>
</symbol>

<symbol id="icon-favorite-fill" viewBox="0 0 24 24">
<path fill="black" d="m12 21.35-1.45-1.32C5.4 15.36 2 12.28 2 8.5 2 5.42 4.42 3 7.5 3c1.74 0 3.41.81 4.5 2.09C13.09 3.81 14.76 3 16.5 3 19.58 3 22 5.42 22 8.5c0 3.78-3.4 6.86-8.55 11.54L12 21.35z"></path>
</symbol>

<symbol id="icon-comment" viewBox="0 0 24 24">
<path fill="black" d="M20 17.17 18.83 16H4V4h16v13.17zM20 2H4c-1.1 0-2 .9-2 2v12c0 1.1.9 2 2 2h14l4 4V4c0-1.1-.9-2-2-2z"></path>
</symbol>

<symbol id="icon-bookmark" viewBox="0 0 24 24">
<path fill="black" d="M17 3H7c-1.1 0-2 .9-2 2v16l7-3 7 3V5c0-1.1-.9-2-2-2zm0 15-5-2.18L7 18V5h10v13z"></path>
</symbol>

<symbol id="icon-bookmark-fill" viewBox="0 0 24 24">
<path fill="black" d="M17 3H7c-1.1 0-2 .9-2 2v16l7-3 7 3V5c0-1.1-.9-2-2-2z"></path>
</symbol>

<symbol id="icon-home-page" viewBox="0 0 24 24">
<path fill="black" d="m12 5.69 5 4.5V18h-2v-6H9v6H7v-7.81l5-4.5M12 3 2 12h3v8h6v-6h2v6h6v-8h3L12 3z"></path>
</symbol>

<symbol id="icon-home-page-fill" viewBox="0 0 24 24">
<path fill="black" d="M10 20v-6h4v6h5v-8h3L12 3 2 12h3v8z"></path>
</symbol>

<symbol id="icon-search" viewBox="0 0 24 24">
<path fill="black" d="M15.5 14h-.79l-.28-.27C15.41 12.59 16 11.11 16 9.5 16 5.91 13.09 3 9.5 3S3 5.91 3 9.5 5.91 16 9.5 16c1.61 0 3.09-.59 4.23-1.57l.27.28v.79l5 4.99L20.49 19l-4.99-5zm-6 0C7.01 14 5 11.99 5 9.5S7.01 5 9.5 5 14 7.01 14 9.5 11.99 14 9.5 14z"></path>
</symbol>

<symbol id="icon-video" viewBox="0 0 24 24">
<path d="M9 7v8l7-4zm12-4H3c-1.1 0-2 .9-2 2v12c0 1.1.9 2 2 2h5v2h8v-2h5c1.1 0 2-.9 2-2V5c0-1.1-.9-2-2-2zm0 14H3V5h18v12z"></path>
</symbol>

<symbol id="icon-shopping-bag" viewBox="0 0 24 24">
<path d="M18 6h-2c0-2.21-1.79-4-4-4S8 3.79 8 6H6c-1.1 0-2 .9-2 2v12c0 1.1.9 2 2 2h12c1.1 0 2-.9 2-2V8c0-1.1-.9-2-2-2zm-6-2c1.1 0 2 .9 2 2h-4c0-1.1.9-2 2-2zm6 16H6V8h2v2c0 .55.45 1 1 1s1-.45 1-1V8h4v2c0 .55.45 1 1 1s1-.45 1-1V8h2v12z"></path>
</symbol>

<symbol id="icon-account" viewBox="0 0 24 24">
<path d="M12 5.9c1.16 0 2.1.94 2.1 2.1s-.94 2.1-2.1 2.1S9.9 9.16 9.9 8s.94-2.1 2.1-2.1m0 9c2.97 0 6.1 1.46 6.1 2.1v1.1H5.9V17c0-.64 3.13-2.1 6.1-2.1M12 4C9.79 4 8 5.79 8 8s1.79 4 4 4 4-1.79 4-4-1.79-4-4-4zm0 9c-2.67 0-8 1.34-8 4v3h16v-3c0-2.66-5.33-4-8-4z"></path>
</symbol>

<symbol id="icon-account-fill" viewBox="0 0 24 24">
<path d="M12 12c2.21 0 4-1.79 4-4s-1.79-4-4-4-4 1.79-4 4 1.79 4 4 4zm0 2c-2.67 0-8 1.34-8 4v2h16v-2c0-2.66-5.33-4-8-4z"></path>
</symbol>

</defs>
</svg>
